<mxfile host="app.diagrams.net" agent="Mozilla/5.0 (Windows NT 10.0; Win64; x64) AppleWebKit/537.36 (KHTML, like Gecko) Chrome/136.0.0.0 Safari/537.36" version="27.0.5">
  <diagram name="Página-1" id="t0hOrykavEFBV3Ww9KOO">
    <mxGraphModel dx="1884" dy="670" grid="1" gridSize="10" guides="1" tooltips="1" connect="1" arrows="1" fold="1" page="1" pageScale="1" pageWidth="827" pageHeight="1169" math="0" shadow="0">
      <root>
        <mxCell id="0" />
        <mxCell id="1" parent="0" />
        <mxCell id="ItCXGaQWiWDyow_1RAYs-53" style="edgeStyle=orthogonalEdgeStyle;rounded=0;orthogonalLoop=1;jettySize=auto;html=1;" edge="1" parent="1" source="T03BukqpaiRdbYDBWtXl-2" target="T03BukqpaiRdbYDBWtXl-42">
          <mxGeometry relative="1" as="geometry">
            <Array as="points">
              <mxPoint x="280" y="580" />
            </Array>
          </mxGeometry>
        </mxCell>
        <mxCell id="ItCXGaQWiWDyow_1RAYs-51" style="edgeStyle=orthogonalEdgeStyle;rounded=0;orthogonalLoop=1;jettySize=auto;html=1;" edge="1" parent="1" source="T03BukqpaiRdbYDBWtXl-1" target="T03BukqpaiRdbYDBWtXl-2">
          <mxGeometry relative="1" as="geometry" />
        </mxCell>
        <mxCell id="ItCXGaQWiWDyow_1RAYs-52" style="edgeStyle=orthogonalEdgeStyle;rounded=0;orthogonalLoop=1;jettySize=auto;html=1;" edge="1" parent="1" source="T03BukqpaiRdbYDBWtXl-1" target="T03BukqpaiRdbYDBWtXl-3">
          <mxGeometry relative="1" as="geometry">
            <Array as="points">
              <mxPoint x="65" y="240" />
            </Array>
          </mxGeometry>
        </mxCell>
        <mxCell id="T03BukqpaiRdbYDBWtXl-1" value="Usuário" style="shape=umlActor;verticalLabelPosition=bottom;verticalAlign=top;html=1;outlineConnect=0;" parent="1" vertex="1">
          <mxGeometry x="50" y="120" width="30" height="60" as="geometry" />
        </mxCell>
        <mxCell id="ItCXGaQWiWDyow_1RAYs-4" style="edgeStyle=orthogonalEdgeStyle;rounded=0;orthogonalLoop=1;jettySize=auto;html=1;entryX=0;entryY=0.5;entryDx=0;entryDy=0;" edge="1" parent="1" source="T03BukqpaiRdbYDBWtXl-6" target="T03BukqpaiRdbYDBWtXl-42">
          <mxGeometry relative="1" as="geometry">
            <Array as="points">
              <mxPoint x="280" y="580" />
            </Array>
          </mxGeometry>
        </mxCell>
        <mxCell id="ItCXGaQWiWDyow_1RAYs-5" style="edgeStyle=orthogonalEdgeStyle;rounded=0;orthogonalLoop=1;jettySize=auto;html=1;entryX=0;entryY=0.5;entryDx=0;entryDy=0;" edge="1" parent="1" source="T03BukqpaiRdbYDBWtXl-6" target="T03BukqpaiRdbYDBWtXl-59">
          <mxGeometry relative="1" as="geometry">
            <Array as="points">
              <mxPoint x="280" y="340" />
            </Array>
          </mxGeometry>
        </mxCell>
        <mxCell id="ItCXGaQWiWDyow_1RAYs-6" style="edgeStyle=orthogonalEdgeStyle;rounded=0;orthogonalLoop=1;jettySize=auto;html=1;entryX=0;entryY=0.5;entryDx=0;entryDy=0;" edge="1" parent="1" source="T03BukqpaiRdbYDBWtXl-6" target="T03BukqpaiRdbYDBWtXl-62">
          <mxGeometry relative="1" as="geometry">
            <Array as="points">
              <mxPoint x="280" y="420" />
            </Array>
          </mxGeometry>
        </mxCell>
        <mxCell id="ItCXGaQWiWDyow_1RAYs-7" style="edgeStyle=orthogonalEdgeStyle;rounded=0;orthogonalLoop=1;jettySize=auto;html=1;entryX=0;entryY=0.5;entryDx=0;entryDy=0;" edge="1" parent="1" source="T03BukqpaiRdbYDBWtXl-3" target="T03BukqpaiRdbYDBWtXl-64">
          <mxGeometry relative="1" as="geometry">
            <Array as="points">
              <mxPoint x="280" y="501" />
            </Array>
          </mxGeometry>
        </mxCell>
        <mxCell id="T03BukqpaiRdbYDBWtXl-6" value="Frontend (Streamlit)" style="swimlane;whiteSpace=wrap;html=1;" parent="1" vertex="1">
          <mxGeometry x="170" y="70" width="220" height="230" as="geometry" />
        </mxCell>
        <mxCell id="T03BukqpaiRdbYDBWtXl-2" value="Interface Mobile&amp;nbsp;&lt;div&gt;(app)&lt;/div&gt;" style="rounded=1;whiteSpace=wrap;html=1;" parent="T03BukqpaiRdbYDBWtXl-6" vertex="1">
          <mxGeometry x="50" y="50" width="120" height="60" as="geometry" />
        </mxCell>
        <mxCell id="T03BukqpaiRdbYDBWtXl-3" value="Interface Web" style="rounded=1;whiteSpace=wrap;html=1;" parent="T03BukqpaiRdbYDBWtXl-6" vertex="1">
          <mxGeometry x="50" y="140" width="120" height="60" as="geometry" />
        </mxCell>
        <mxCell id="T03BukqpaiRdbYDBWtXl-51" value="BFFs (Julia)" style="swimlane;whiteSpace=wrap;html=1;" parent="1" vertex="1">
          <mxGeometry x="430" y="70" width="206" height="560" as="geometry" />
        </mxCell>
        <mxCell id="T03BukqpaiRdbYDBWtXl-42" value="Validar dados de login" style="rounded=1;whiteSpace=wrap;html=1;" parent="T03BukqpaiRdbYDBWtXl-51" vertex="1">
          <mxGeometry x="43" y="480" width="120" height="60" as="geometry" />
        </mxCell>
        <mxCell id="T03BukqpaiRdbYDBWtXl-59" value="Validação dados Fiscal" style="rounded=1;whiteSpace=wrap;html=1;" parent="T03BukqpaiRdbYDBWtXl-51" vertex="1">
          <mxGeometry x="43" y="240" width="120" height="60" as="geometry" />
        </mxCell>
        <mxCell id="T03BukqpaiRdbYDBWtXl-62" value="Validação dados Pesquisador" style="rounded=1;whiteSpace=wrap;html=1;" parent="T03BukqpaiRdbYDBWtXl-51" vertex="1">
          <mxGeometry x="43" y="320" width="120" height="60" as="geometry" />
        </mxCell>
        <mxCell id="T03BukqpaiRdbYDBWtXl-64" value="Validação dados Cidadão" style="rounded=1;whiteSpace=wrap;html=1;" parent="T03BukqpaiRdbYDBWtXl-51" vertex="1">
          <mxGeometry x="43" y="401" width="120" height="60" as="geometry" />
        </mxCell>
        <mxCell id="T03BukqpaiRdbYDBWtXl-18" value="Validação registro de focos" style="rounded=1;whiteSpace=wrap;html=1;" parent="T03BukqpaiRdbYDBWtXl-51" vertex="1">
          <mxGeometry x="43" y="50" width="120" height="60" as="geometry" />
        </mxCell>
        <mxCell id="T03BukqpaiRdbYDBWtXl-16" value="Manipulação de dados para dashboard" style="rounded=1;whiteSpace=wrap;html=1;" parent="T03BukqpaiRdbYDBWtXl-51" vertex="1">
          <mxGeometry x="43" y="140" width="120" height="60" as="geometry" />
        </mxCell>
        <mxCell id="T03BukqpaiRdbYDBWtXl-52" value="Backend (Julia)" style="swimlane;whiteSpace=wrap;html=1;" parent="1" vertex="1">
          <mxGeometry x="670" y="70" width="193" height="560" as="geometry" />
        </mxCell>
        <mxCell id="T03BukqpaiRdbYDBWtXl-8" value="Autenticação usuário" style="rounded=1;whiteSpace=wrap;html=1;" parent="T03BukqpaiRdbYDBWtXl-52" vertex="1">
          <mxGeometry x="36.5" y="480" width="120" height="60" as="geometry" />
        </mxCell>
        <mxCell id="T03BukqpaiRdbYDBWtXl-69" value="Inserção usuário no banco de usuários" style="rounded=1;whiteSpace=wrap;html=1;" parent="T03BukqpaiRdbYDBWtXl-52" vertex="1">
          <mxGeometry x="36.5" y="240" width="120" height="60" as="geometry" />
        </mxCell>
        <mxCell id="T03BukqpaiRdbYDBWtXl-12" value="Registro de focos" style="rounded=1;whiteSpace=wrap;html=1;" parent="T03BukqpaiRdbYDBWtXl-52" vertex="1">
          <mxGeometry x="36.5" y="50" width="120" height="60" as="geometry" />
        </mxCell>
        <mxCell id="T03BukqpaiRdbYDBWtXl-14" value="Busca de registros de focos" style="rounded=1;whiteSpace=wrap;html=1;" parent="T03BukqpaiRdbYDBWtXl-52" vertex="1">
          <mxGeometry x="36.5" y="140" width="120" height="60" as="geometry" />
        </mxCell>
        <mxCell id="T03BukqpaiRdbYDBWtXl-57" value="Bancos (Postgress)" style="swimlane;whiteSpace=wrap;html=1;strokeColor=default;" parent="1" vertex="1">
          <mxGeometry x="900" y="70" width="170" height="410" as="geometry" />
        </mxCell>
        <mxCell id="T03BukqpaiRdbYDBWtXl-26" value="Dados&lt;div&gt;Musquitos&lt;/div&gt;" style="shape=cylinder3;whiteSpace=wrap;html=1;boundedLbl=1;backgroundOutline=1;size=15;" parent="T03BukqpaiRdbYDBWtXl-57" vertex="1">
          <mxGeometry x="55" y="40" width="60" height="80" as="geometry" />
        </mxCell>
        <mxCell id="T03BukqpaiRdbYDBWtXl-38" value="Dados&lt;div&gt;Usuários&lt;/div&gt;" style="shape=cylinder3;whiteSpace=wrap;html=1;boundedLbl=1;backgroundOutline=1;size=15;" parent="T03BukqpaiRdbYDBWtXl-57" vertex="1">
          <mxGeometry x="55" y="230" width="60" height="80" as="geometry" />
        </mxCell>
        <mxCell id="T03BukqpaiRdbYDBWtXl-58" value="Sistema Externo" style="swimlane;whiteSpace=wrap;html=1;" parent="1" vertex="1">
          <mxGeometry x="900" y="510" width="170" height="120" as="geometry" />
        </mxCell>
        <mxCell id="T03BukqpaiRdbYDBWtXl-48" value="Gerar token" style="ellipse;shape=cloud;whiteSpace=wrap;html=1;" parent="T03BukqpaiRdbYDBWtXl-58" vertex="1">
          <mxGeometry x="25" y="30" width="120" height="80" as="geometry" />
        </mxCell>
        <mxCell id="ItCXGaQWiWDyow_1RAYs-29" style="edgeStyle=orthogonalEdgeStyle;rounded=0;orthogonalLoop=1;jettySize=auto;html=1;" edge="1" parent="1" source="T03BukqpaiRdbYDBWtXl-42" target="T03BukqpaiRdbYDBWtXl-8">
          <mxGeometry relative="1" as="geometry" />
        </mxCell>
        <mxCell id="ItCXGaQWiWDyow_1RAYs-30" style="edgeStyle=orthogonalEdgeStyle;rounded=0;orthogonalLoop=1;jettySize=auto;html=1;" edge="1" parent="1" source="T03BukqpaiRdbYDBWtXl-8" target="T03BukqpaiRdbYDBWtXl-42">
          <mxGeometry relative="1" as="geometry" />
        </mxCell>
        <mxCell id="ItCXGaQWiWDyow_1RAYs-31" style="edgeStyle=orthogonalEdgeStyle;rounded=0;orthogonalLoop=1;jettySize=auto;html=1;" edge="1" parent="1" source="T03BukqpaiRdbYDBWtXl-59" target="T03BukqpaiRdbYDBWtXl-69">
          <mxGeometry relative="1" as="geometry" />
        </mxCell>
        <mxCell id="ItCXGaQWiWDyow_1RAYs-32" style="edgeStyle=orthogonalEdgeStyle;rounded=0;orthogonalLoop=1;jettySize=auto;html=1;" edge="1" parent="1" source="T03BukqpaiRdbYDBWtXl-62" target="T03BukqpaiRdbYDBWtXl-69">
          <mxGeometry relative="1" as="geometry">
            <Array as="points">
              <mxPoint x="620" y="420" />
              <mxPoint x="620" y="340" />
            </Array>
          </mxGeometry>
        </mxCell>
        <mxCell id="ItCXGaQWiWDyow_1RAYs-33" style="edgeStyle=orthogonalEdgeStyle;rounded=0;orthogonalLoop=1;jettySize=auto;html=1;" edge="1" parent="1" source="T03BukqpaiRdbYDBWtXl-64" target="T03BukqpaiRdbYDBWtXl-69">
          <mxGeometry relative="1" as="geometry">
            <Array as="points">
              <mxPoint x="620" y="501" />
              <mxPoint x="620" y="340" />
            </Array>
          </mxGeometry>
        </mxCell>
        <mxCell id="ItCXGaQWiWDyow_1RAYs-36" style="edgeStyle=orthogonalEdgeStyle;rounded=0;orthogonalLoop=1;jettySize=auto;html=1;" edge="1" parent="1" source="T03BukqpaiRdbYDBWtXl-69" target="T03BukqpaiRdbYDBWtXl-38">
          <mxGeometry relative="1" as="geometry" />
        </mxCell>
        <mxCell id="ItCXGaQWiWDyow_1RAYs-37" style="edgeStyle=orthogonalEdgeStyle;rounded=0;orthogonalLoop=1;jettySize=auto;html=1;" edge="1" parent="1" source="T03BukqpaiRdbYDBWtXl-38" target="T03BukqpaiRdbYDBWtXl-8">
          <mxGeometry relative="1" as="geometry">
            <Array as="points">
              <mxPoint x="985" y="450" />
              <mxPoint x="767" y="450" />
            </Array>
          </mxGeometry>
        </mxCell>
        <mxCell id="ItCXGaQWiWDyow_1RAYs-38" style="edgeStyle=orthogonalEdgeStyle;rounded=0;orthogonalLoop=1;jettySize=auto;html=1;" edge="1" parent="1" source="T03BukqpaiRdbYDBWtXl-12" target="T03BukqpaiRdbYDBWtXl-26">
          <mxGeometry relative="1" as="geometry">
            <Array as="points">
              <mxPoint x="975" y="140" />
            </Array>
          </mxGeometry>
        </mxCell>
        <mxCell id="ItCXGaQWiWDyow_1RAYs-43" style="edgeStyle=orthogonalEdgeStyle;rounded=0;orthogonalLoop=1;jettySize=auto;html=1;" edge="1" parent="1" source="T03BukqpaiRdbYDBWtXl-3" target="T03BukqpaiRdbYDBWtXl-18">
          <mxGeometry relative="1" as="geometry">
            <Array as="points">
              <mxPoint x="410" y="240" />
              <mxPoint x="410" y="150" />
            </Array>
          </mxGeometry>
        </mxCell>
        <mxCell id="ItCXGaQWiWDyow_1RAYs-44" style="edgeStyle=orthogonalEdgeStyle;rounded=0;orthogonalLoop=1;jettySize=auto;html=1;" edge="1" parent="1" source="T03BukqpaiRdbYDBWtXl-2" target="T03BukqpaiRdbYDBWtXl-16">
          <mxGeometry relative="1" as="geometry">
            <Array as="points">
              <mxPoint x="410" y="150" />
              <mxPoint x="410" y="240" />
            </Array>
          </mxGeometry>
        </mxCell>
        <mxCell id="ItCXGaQWiWDyow_1RAYs-45" style="edgeStyle=orthogonalEdgeStyle;rounded=0;orthogonalLoop=1;jettySize=auto;html=1;" edge="1" parent="1" source="T03BukqpaiRdbYDBWtXl-18" target="T03BukqpaiRdbYDBWtXl-3">
          <mxGeometry relative="1" as="geometry">
            <Array as="points">
              <mxPoint x="410" y="150" />
              <mxPoint x="410" y="240" />
            </Array>
          </mxGeometry>
        </mxCell>
        <mxCell id="ItCXGaQWiWDyow_1RAYs-46" style="edgeStyle=orthogonalEdgeStyle;rounded=0;orthogonalLoop=1;jettySize=auto;html=1;exitX=0;exitY=0.5;exitDx=0;exitDy=0;" edge="1" parent="1" source="T03BukqpaiRdbYDBWtXl-16" target="T03BukqpaiRdbYDBWtXl-2">
          <mxGeometry relative="1" as="geometry">
            <Array as="points">
              <mxPoint x="410" y="240" />
              <mxPoint x="410" y="150" />
            </Array>
          </mxGeometry>
        </mxCell>
        <mxCell id="ItCXGaQWiWDyow_1RAYs-47" style="edgeStyle=orthogonalEdgeStyle;rounded=0;orthogonalLoop=1;jettySize=auto;html=1;" edge="1" parent="1" source="T03BukqpaiRdbYDBWtXl-18" target="T03BukqpaiRdbYDBWtXl-12">
          <mxGeometry relative="1" as="geometry" />
        </mxCell>
        <mxCell id="ItCXGaQWiWDyow_1RAYs-48" style="edgeStyle=orthogonalEdgeStyle;rounded=0;orthogonalLoop=1;jettySize=auto;html=1;" edge="1" parent="1" source="T03BukqpaiRdbYDBWtXl-12" target="T03BukqpaiRdbYDBWtXl-18">
          <mxGeometry relative="1" as="geometry" />
        </mxCell>
        <mxCell id="ItCXGaQWiWDyow_1RAYs-49" style="edgeStyle=orthogonalEdgeStyle;rounded=0;orthogonalLoop=1;jettySize=auto;html=1;" edge="1" parent="1" source="T03BukqpaiRdbYDBWtXl-16" target="T03BukqpaiRdbYDBWtXl-14">
          <mxGeometry relative="1" as="geometry" />
        </mxCell>
        <mxCell id="ItCXGaQWiWDyow_1RAYs-50" style="edgeStyle=orthogonalEdgeStyle;rounded=0;orthogonalLoop=1;jettySize=auto;html=1;" edge="1" parent="1" source="T03BukqpaiRdbYDBWtXl-14" target="T03BukqpaiRdbYDBWtXl-16">
          <mxGeometry relative="1" as="geometry" />
        </mxCell>
        <mxCell id="ItCXGaQWiWDyow_1RAYs-55" style="edgeStyle=orthogonalEdgeStyle;rounded=0;orthogonalLoop=1;jettySize=auto;html=1;" edge="1" parent="1" source="T03BukqpaiRdbYDBWtXl-8" target="T03BukqpaiRdbYDBWtXl-48">
          <mxGeometry relative="1" as="geometry" />
        </mxCell>
        <mxCell id="ItCXGaQWiWDyow_1RAYs-56" style="edgeStyle=orthogonalEdgeStyle;rounded=0;orthogonalLoop=1;jettySize=auto;html=1;" edge="1" parent="1" source="T03BukqpaiRdbYDBWtXl-26" target="T03BukqpaiRdbYDBWtXl-14">
          <mxGeometry relative="1" as="geometry">
            <Array as="points">
              <mxPoint x="980" y="240" />
            </Array>
          </mxGeometry>
        </mxCell>
      </root>
    </mxGraphModel>
  </diagram>
</mxfile>
